# xmcd
#
# Track frame offsets: 
#        150
#        14574
#        30648
#        46369
#        58000
#        69274
#        84754
#        93323
#        102878
#        119878
#        127146
#        139964
#        158063
#        172158
#        192594
#        215371
#        238278
#        245578
#        262153
#
# Disc length: 3625 seconds
#
# Revision: 3
# Processed by: cddbd v1.5.2PL0 Copyright (c) Steve Scherf et al.
# Submitted via: ExactAudioCopyFreeDBPlugin 1.0
#
DISCID=210e2713
DTITLE=The Cathedrals - The Best Of The Cathedrals
DYEAR=2002
DGENRE=Gospel
TTITLE0=This Old House,When The Saints Go Marching Home
TTITLE1=Trying To Get A Glimpse
TTITLE2=Life Will Be Sweeter Some Day
TTITLE3=Climbing Higher And Higher
TTITLE4=An Old Convention Song
TTITLE5=Boundless Love
TTITLE6=Give The World A Smile
TTITLE7=A New Born Feeling (I've Got A)
TTITLE8=The Haven Of Rest
TTITLE9=The Heavenly Parade
TTITLE10=Movin' Up To Gloryland
TTITLE11=Mexico
TTITLE12=He Made A Change
TTITLE13=O What A Savior
TTITLE14=We Shall See Jesus
TTITLE15=Sinner Saved By Grace
TTITLE16=Cleanse Me
TTITLE17=Thanks To Calvary ( I Don't Live Here Anymore)
TTITLE18=I'll Have A New Life - Everybody Will Be Happy Over There
EXTD=Gaither Gospel Series
EXTT0=
EXTT1=
EXTT2=
EXTT3=
EXTT4=
EXTT5=
EXTT6=
EXTT7=
EXTT8=
EXTT9=
EXTT10=
EXTT11=
EXTT12=
EXTT13=
EXTT14=
EXTT15=
EXTT16=
EXTT17=
EXTT18=
PLAYORDER=
